<svg width="28" height="27" viewBox="0 0 28 27" fill="none" xmlns="http://www.w3.org/2000/svg">
<path d="M17.3697 13.5C17.3697 14.1665 17.172 14.8179 16.8018 15.372C16.4315 15.9262 15.9053 16.3581 15.2896 16.6131C14.6739 16.8681 13.9964 16.9348 13.3427 16.8048C12.6891 16.6748 12.0887 16.3539 11.6175 15.8827C11.1462 15.4114 10.8253 14.811 10.6953 14.1574C10.5653 13.5038 10.632 12.8262 10.887 12.2105C11.1421 11.5948 11.574 11.0686 12.1281 10.6983C12.6822 10.3281 13.3337 10.1304 14.0001 10.1304C14.8929 10.1332 15.7484 10.4891 16.3797 11.1204C17.011 11.7518 17.3669 12.6072 17.3697 13.5ZM24.53 8.86686V18.1332C24.53 19.6971 23.9087 21.1969 22.8029 22.3028C21.697 23.4086 20.1972 24.0299 18.6333 24.0299H9.36695C7.80304 24.0299 6.30318 23.4086 5.19733 22.3028C4.09148 21.1969 3.47021 19.6971 3.47021 18.1332V8.86686C3.47021 7.30295 4.09148 5.80309 5.19733 4.69724C6.30318 3.59139 7.80304 2.97012 9.36695 2.97012H18.6333C20.1972 2.97012 21.697 3.59139 22.8029 4.69724C23.9087 5.80309 24.53 7.30295 24.53 8.86686ZM19.0545 13.5C19.0545 12.5004 18.758 11.5232 18.2026 10.692C17.6473 9.86079 16.8579 9.21296 15.9343 8.83041C15.0108 8.44785 13.9945 8.34776 13.0141 8.54278C12.0336 8.73781 11.133 9.21919 10.4261 9.92605C9.71928 10.6329 9.2379 11.5335 9.04288 12.514C8.84785 13.4944 8.94795 14.5107 9.3305 15.4342C9.71305 16.3578 10.3609 17.1472 11.1921 17.7025C12.0232 18.2579 13.0005 18.5544 14.0001 18.5544C15.3406 18.5544 16.6262 18.0219 17.5741 17.074C18.5219 16.1261 19.0545 14.8405 19.0545 13.5ZM20.7392 8.02447C20.7392 7.77456 20.6651 7.53026 20.5263 7.32246C20.3874 7.11466 20.1901 6.95271 19.9592 6.85707C19.7283 6.76143 19.4742 6.73641 19.2291 6.78516C18.984 6.83392 18.7589 6.95426 18.5822 7.13098C18.4054 7.3077 18.2851 7.53285 18.2363 7.77796C18.1876 8.02307 18.2126 8.27713 18.3082 8.50802C18.4039 8.73891 18.5658 8.93626 18.7736 9.07511C18.9814 9.21395 19.2257 9.28806 19.4756 9.28806C19.8108 9.28806 20.1322 9.15493 20.3691 8.91796C20.6061 8.68099 20.7392 8.35959 20.7392 8.02447Z" fill="white"/>
</svg>
