<svg width="11" height="18" viewBox="0 0 11 18" fill="currentColor" xmlns="http://www.w3.org/2000/svg">
<path d="M7.94995 16.9499L1.04995 10.05C0.899951 9.89995 0.793951 9.73745 0.731951 9.56245C0.669951 9.38745 0.638451 9.19995 0.637451 8.99995C0.637451 8.79995 0.668951 8.61245 0.731951 8.43745C0.794951 8.26245 0.900951 8.09995 1.04995 7.94995L7.94995 1.04995C8.22495 0.774951 8.57495 0.637451 8.99995 0.637451C9.42495 0.637451 9.77495 0.774951 10.05 1.04995C10.325 1.32495 10.4625 1.67495 10.4625 2.09995C10.4625 2.52495 10.325 2.87495 10.05 3.14995L4.19995 8.99995L10.05 14.85C10.325 15.125 10.4625 15.475 10.4625 15.9C10.4625 16.325 10.325 16.6749 10.05 16.9499C9.77495 17.2249 9.42495 17.3625 8.99995 17.3625C8.57495 17.3625 8.22495 17.2249 7.94995 16.9499Z"/>
</svg>
