<svg width="11" height="18" viewBox="0 0 11 18" fill="currentColor" xmlns="http://www.w3.org/2000/svg">
<path d="M3.05005 16.9499L9.95005 10.05C10.1 9.89995 10.206 9.73745 10.268 9.56245C10.33 9.38745 10.3615 9.19995 10.3625 8.99995C10.3625 8.79995 10.331 8.61245 10.268 8.43745C10.205 8.26245 10.099 8.09995 9.95005 7.94995L3.05005 1.04995C2.77505 0.774951 2.42505 0.637451 2.00005 0.637451C1.57505 0.637451 1.22505 0.774951 0.950048 1.04995C0.675049 1.32495 0.537548 1.67495 0.537548 2.09995C0.537548 2.52495 0.675049 2.87495 0.950048 3.14995L6.80005 8.99995L0.950048 14.85C0.675049 15.125 0.537548 15.475 0.537548 15.9C0.537548 16.325 0.675049 16.6749 0.950048 16.9499C1.22505 17.2249 1.57505 17.3625 2.00005 17.3625C2.42505 17.3625 2.77505 17.2249 3.05005 16.9499Z"/>
</svg>
