<svg width="24" height="24" viewBox="0 0 24 24" fill="none" xmlns="http://www.w3.org/2000/svg">
<path d="M5.5 7C5.10218 7 4.72064 6.84196 4.43934 6.56066C4.15804 6.27936 4 5.89782 4 5.5C4 5.10218 4.15804 4.72064 4.43934 4.43934C4.72064 4.15804 5.10218 4 5.5 4C5.89782 4 6.27936 4.15804 6.56066 4.43934C6.84196 4.72064 7 5.10218 7 5.5C7 5.89782 6.84196 6.27936 6.56066 6.56066C6.27936 6.84196 5.89782 7 5.5 7ZM21.41 11.58L12.41 2.58C12.05 2.22 11.55 2 11 2H4C2.89 2 2 2.89 2 4V11C2 11.55 2.22 12.05 2.59 12.41L11.58 21.41C11.95 21.77 12.45 22 13 22C13.55 22 14.05 21.77 14.41 21.41L21.41 14.41C21.78 14.05 22 13.55 22 13C22 12.44 21.77 11.94 21.41 11.58Z" fill="white"/>
</svg>
