<svg width="86" height="30" viewBox="0 0 86 30" fill="none" xmlns="http://www.w3.org/2000/svg">
<path d="M74.623 12.6649H67.7395L69.0686 7.06342H66.6143L65.2852 12.6649H63.0361L62.9341 13.1011H65.1833L62.218 25.5042C62.0483 26.1952 61.8438 26.9223 61.8438 27.7223C61.8438 28.705 62.4574 29.5773 63.82 29.5773C66.2736 29.5773 67.5001 26.1223 67.6369 25.7222L67.2963 25.5764C67.0575 26.1584 66.1033 28.4133 64.9446 28.4133C64.4678 28.4133 64.2632 28.123 64.2632 27.541C64.2632 27.1771 64.331 26.8133 64.4336 26.4132L67.6027 13.1011H72.101L69.1021 25.5042C68.9318 26.1584 68.7279 26.9584 68.7279 27.6501C68.7279 28.6682 69.3409 29.5773 70.7383 29.5773C73.1913 29.5773 74.4185 26.1223 74.5546 25.7222L74.214 25.5764C73.9753 26.1223 72.9881 28.4133 71.8964 28.4133C71.2835 28.4133 71.1809 28.0501 71.1809 27.5043C71.1809 27.1404 71.2493 26.8139 71.3513 26.4139L74.623 12.6649ZM58.2314 28.414C57.6178 28.414 57.4817 28.0507 57.4817 27.5772C57.4817 27.2139 57.5494 26.8139 57.652 26.4139L59.8327 17.3935C60.0373 16.5567 60.2418 15.8296 60.2418 14.8476C60.2418 13.7566 59.5605 12.3746 57.6178 12.3746C55.4029 12.3746 54.2099 14.3024 53.7331 15.1386L54.3125 12.6656H49.6433L49.5071 13.1017H51.7221L47.8374 29.2508H50.291L52.9492 18.302C53.5621 15.8289 54.9938 13.283 56.6294 13.283C57.6178 13.283 57.9243 13.974 57.9243 14.6289C57.9243 15.2108 57.7539 15.8289 57.5836 16.556L55.4371 25.5035C55.3003 26.0855 55.0622 27.1036 55.0622 27.7952C55.0622 28.7778 55.6751 29.5779 57.0384 29.5779C59.4921 29.5779 60.7192 26.1229 60.8895 25.7229L60.5489 25.5771C60.2076 26.3042 59.2875 28.414 58.2314 28.414ZM44.2592 26.4132L47.5645 12.6649H45.1115L44.7018 14.4469C44.5998 14.083 44.2934 12.301 42.112 12.301C39.2151 12.301 37.7841 14.8469 36.864 17.3928C36.3189 18.9207 35.1943 22.7395 35.1265 25.3222C35.0233 28.0862 36.2847 29.5773 38.2615 29.5773C40.1358 29.5773 41.3281 27.5772 41.7713 26.5584C41.7371 26.7042 41.6694 27.2501 41.6694 27.6501C41.6352 28.6682 42.3165 29.5773 43.6456 29.5773C46.2018 29.5773 47.3264 26.0855 47.4625 25.7222L47.1219 25.5764C46.8832 26.1584 45.9631 28.4133 44.7702 28.4133C44.2592 28.4133 44.054 28.0501 44.0889 27.4313C44.0889 27.1771 44.1572 26.8133 44.2592 26.4132ZM42.3165 24.0132C41.5326 26.6675 40.3061 28.7049 38.8409 28.7049C37.8183 28.7049 37.3415 28.0501 37.375 26.5952C37.4776 23.3583 39.2499 17.5754 39.6583 16.3018C40.3403 14.156 41.2945 12.9198 42.521 12.9198C43.6456 12.9198 44.1914 13.974 44.1572 15.1747C44.0889 16.9567 43.3049 20.5214 42.3165 24.0125M31.3774 28.414C30.8664 28.414 30.696 28.123 30.696 27.541C30.696 27.1771 30.7302 26.8501 30.8322 26.4139L37.1705 0.371519H32.4335L32.3316 0.808313H34.5465L28.6172 25.5042C28.4469 26.2319 28.2424 26.9958 28.2424 27.7959C28.2424 28.7049 28.7534 29.5779 30.1502 29.5779C32.6723 29.5779 33.8994 26.2319 34.0697 25.7229L33.7291 25.5771C33.4903 26.1958 32.4677 28.414 31.3774 28.414ZM74.5211 6.4821C73.703 6.4821 73.1236 7.17242 73.1236 8.15505C73.1236 8.95508 73.6352 9.60995 74.3849 9.60995C75.1688 9.60995 75.7818 8.91896 75.7818 7.97312C75.7818 7.13695 75.2708 6.4821 74.5211 6.4821ZM82.564 12.301C79.6323 12.301 78.0993 14.5205 77.2128 17.3567C76.6334 19.1762 75.714 22.1215 75.714 25.3945C75.714 27.0675 76.4302 29.5773 79.5303 29.5773C82.7679 29.5773 84.1647 25.2493 84.3692 24.7402L83.9266 24.5215C83.4834 25.6493 82.2904 28.6314 80.2123 28.6314C78.8832 28.6314 78.167 27.541 78.167 25.5035C78.167 22.5576 79.0193 19.5033 79.769 17.1019C80.6891 14.1559 81.2684 12.7739 82.6311 12.7739C83.5176 12.7739 84.0634 13.2101 84.0634 13.7921C84.0634 14.6289 83.5518 15.0289 83.5518 15.7922C83.5518 16.4838 84.0292 16.9928 84.6421 16.9928C85.3919 16.9928 85.8686 16.338 85.8686 15.2831C85.8686 14.1927 85.2899 12.301 82.5633 12.301M24.3913 28.414C23.948 28.414 23.6757 28.123 23.6757 27.541C23.6757 27.2501 23.7441 26.8139 23.8461 26.4139L27.0494 13.1017H29.6734L29.7754 12.6656H27.152L28.5147 7.06342H26.061L24.6977 12.6649H22.6873L22.5854 13.1011H24.5958L21.6311 25.5035C21.4602 26.1952 21.2563 26.8862 21.2563 27.7952C21.2563 28.6682 21.7673 29.5773 23.1641 29.5773C25.7545 29.5773 26.8791 26.1952 27.0836 25.7222L26.743 25.5764C26.5043 26.1584 25.5158 28.4133 24.3913 28.4133M3.39943 9.13704H2.58004L4.5227 1.0264H4.86336C5.74985 1.0264 5.95372 1.13543 5.68146 2.77227H5.88598L6.36342 0.771532H1.79678L1.31934 2.77227H1.52386C2.03485 1.38963 2.24002 1.0264 3.16006 1.0264H3.56847L1.62645 9.13704H0.876741L0.80835 9.39187H3.33104L3.39813 9.13704H3.39943ZM5.2395 9.39124H6.09115L6.97699 5.7543C7.21571 4.80845 7.7267 3.97164 8.27188 3.97164C8.61319 3.97164 8.71578 4.22649 8.71578 4.40843C8.71578 4.62651 8.64674 4.91815 8.57835 5.17235L7.89703 7.97248C7.86348 8.08217 7.7609 8.55444 7.7609 8.80929C7.7609 9.17318 7.93123 9.50028 8.40802 9.50028C9.29451 9.50028 9.66936 8.40989 9.77195 8.15505L9.60098 8.08278C9.49903 8.33699 9.19257 9.028 8.81771 9.028C8.68093 9.028 8.61254 8.9551 8.61254 8.73703C8.61254 8.55509 8.68158 8.19182 8.71578 8.04601L9.39709 5.31817C9.46548 5.02719 9.53258 4.73619 9.53258 4.40843C9.53258 4.00842 9.29386 3.53615 8.61319 3.53615C7.89703 3.53615 7.41959 4.2265 7.2841 4.44522L8.1693 0.771532H6.73892L6.66989 1.0264H7.24991L5.2395 9.39124ZM11.5094 9.50091C12.634 9.50091 13.1792 8.11894 13.2818 7.82796L13.0772 7.71825C12.8727 8.22795 12.4295 9.06411 11.6798 9.06411C11.2365 9.06411 10.9985 8.73702 10.9985 8.15442C10.9985 7.7544 11.0662 7.35438 11.1346 7.02727C12.1908 6.77306 13.9631 5.82721 13.9631 4.51747C13.9631 3.93616 13.6566 3.53615 12.9405 3.53615C11.6114 3.53615 10.1804 5.82658 10.1804 8.00989C10.1804 8.80993 10.4868 9.50091 11.5094 9.50091ZM12.9405 3.79038C13.2476 3.79038 13.3495 3.93619 13.3495 4.22717C13.3495 5.17302 12.4295 6.37304 11.2023 6.73692C11.5094 5.20912 12.2933 3.79038 12.9405 3.79038Z" fill="white"/>
</svg>
