<svg width="203" height="31" viewBox="0 0 203 31" fill="none" xmlns="http://www.w3.org/2000/svg">
<path fill-rule="evenodd" clip-rule="evenodd" d="M17.6936 1.03548C17.5574 1.17078 13.6183 1.35488 8.94068 1.44496C1.91842 1.58026 0.435302 1.68934 0.435302 2.07098C0.435302 2.32518 0.927354 2.69699 1.52875 2.89715C2.13015 3.0973 2.7617 3.47894 2.93201 3.74526C3.10862 4.02174 3.24381 9.23689 3.24679 15.9006C3.25209 28.5873 3.32698 28.0809 1.36772 28.5988C0.854789 28.7344 0.387257 29.0928 0.328277 29.3951C0.231523 29.8914 0.741468 29.9448 5.5712 29.9448C10.4009 29.9448 10.9109 29.8914 10.8141 29.3951C10.7551 29.0928 10.2876 28.7344 9.77468 28.5988C7.90853 28.1054 7.89063 28.0419 7.89063 21.8656V16.1597L10.5991 16.2551L13.3075 16.3501L14.006 17.7239C15.1435 19.9604 15.5514 19.1971 15.4407 15.0397C15.3377 11.1847 14.9122 10.3598 14.0627 12.3699C13.4265 13.8755 12.6809 14.2208 10.0663 14.2208H7.89063L7.8903 8.89751V3.57426L11.0908 3.63356C12.8509 3.66631 14.6299 3.77704 15.0438 3.8799C16.0951 4.14066 16.837 4.95798 16.837 5.85556C16.837 6.64864 17.4789 7.1089 18.0667 6.73775C18.2542 6.61949 18.5153 5.23282 18.6462 3.65616C18.8433 1.2851 18.8032 0.789795 18.4129 0.789795C18.1538 0.789795 17.8301 0.900191 17.6936 1.03548ZM62.1313 1.16652C61.7728 1.36471 57.8036 1.44922 51.8347 1.38534L42.1219 1.28117L42.0317 3.08289C41.9824 4.07383 41.9221 5.32684 41.8979 5.86735C41.8472 6.99556 42.7826 7.28809 42.9456 6.19494C42.9993 5.8346 43.326 5.17124 43.6716 4.72081C44.2339 3.98833 44.599 3.88449 47.1328 3.73806C49.3052 3.61259 50.0046 3.67581 50.1342 4.01061C50.2273 4.2504 50.3032 9.24541 50.3032 15.1105C50.3032 27.084 50.1736 28.0609 48.5242 28.5287C47.9562 28.6898 47.4413 29.078 47.38 29.3918C47.278 29.917 47.6716 29.955 52.3483 29.8714C56.4994 29.7974 57.4272 29.6952 57.4272 29.3106C57.4272 29.0518 56.9368 28.7144 56.337 28.5608C55.6187 28.3767 55.1372 27.9957 54.9248 27.4431C54.7316 26.9409 54.6372 21.9898 54.6892 15.0974L54.7764 3.59031L57.2284 3.65321C59.9663 3.72331 61.1137 4.38143 61.3023 5.98954C61.3613 6.49173 61.6104 6.85011 61.9004 6.85011C62.2781 6.85011 62.4812 6.15759 62.7466 3.96343C62.9388 2.37596 63.0104 1.02435 62.9053 0.960139C62.8003 0.89626 62.4521 0.988966 62.1313 1.16652ZM30.7487 1.90162C28.8653 2.89584 27.5856 4.46267 27.0641 6.41245C26.7119 7.72902 26.739 8.21351 27.2602 9.91499C27.74 11.4818 28.2245 12.2323 29.6049 13.5469C30.5618 14.4579 31.4415 15.2035 31.5598 15.2035C31.7593 15.2035 33.6957 16.4706 34.0671 16.8444C34.1582 16.9361 34.7547 17.3603 35.3925 17.7872C36.0304 18.214 37.037 19.1499 37.6291 19.867C38.5443 20.9749 38.706 21.4329 38.706 22.9158C38.706 25.0858 38.3326 26.0839 37.0605 27.3133C35.9061 28.4291 34.359 28.7986 32.0008 28.5224C29.7795 28.2623 28.2606 27.1964 27.3762 25.2767C26.9365 24.3225 26.4448 23.7207 26.1048 23.7207C25.6406 23.7207 25.5177 24.2141 25.3517 26.7505C25.1403 29.9779 25.3474 30.657 26.2662 29.7483C26.8089 29.2117 26.9286 29.2143 28.5479 29.8C30.9405 30.6652 36.3365 30.6642 38.209 29.7984C39.6914 29.1131 42.0195 27.0768 42.0195 26.4659C42.0195 26.2474 42.1938 26.0109 42.4068 25.9407C42.6461 25.8618 42.8515 24.7356 42.9436 22.9981C43.1845 18.4649 42.316 17.2037 35.8203 12.6503C33.9714 11.3544 32.1403 9.85209 31.7513 9.31223C29.4031 6.05178 31.6241 2.80149 35.9575 3.15659C38.0294 3.32661 38.9028 3.99357 39.3886 5.77661C39.8594 7.50462 40.4787 7.19178 40.7421 5.09327C40.8594 4.15638 41.0526 2.87847 41.1712 2.25377C41.3571 1.27462 41.2981 1.11738 40.7445 1.11738C40.3912 1.11738 40.0185 1.33359 39.9158 1.59795C39.7517 2.02053 39.5884 2.02053 38.5655 1.59795C37.8803 1.31491 36.3395 1.11738 34.8183 1.11738C32.7272 1.11738 31.9511 1.26709 30.7487 1.90162ZM76.9767 1.34145C76.2358 1.50688 74.5575 2.19743 72.8849 3.02523C70.9014 4.00667 68.3776 6.71121 67.1754 9.1432C66.0558 11.4088 66.0422 11.4894 66.0422 15.8587C66.0422 20.1684 66.0694 20.3358 67.1015 22.4205C68.8603 25.9735 71.4883 28.2581 75.366 29.6054C77.3988 30.312 81.8124 30.4988 86.0702 30.0588C87.8949 29.8701 88.1763 29.7456 88.4732 28.9942C88.658 28.526 88.9977 27.7002 89.2273 27.159C89.4572 26.6179 89.7515 25.6964 89.8814 25.1116C90.0888 24.1783 90.0335 24.0483 89.4284 24.0483C89.0497 24.0483 88.7396 24.2023 88.7396 24.3903C88.7396 25.0003 86.3873 27.2648 85.1451 27.8506C83.3542 28.6951 79.4558 28.6043 77.2514 27.6668C72.5433 25.6643 69.7503 19.297 70.8149 12.9923C71.3623 9.7512 72.2053 7.9331 74.0588 5.99773C76.2759 3.68269 78.1725 2.99673 81.9724 3.13497C85.9337 3.27878 86.4943 3.63487 88.0838 7.0139C88.5384 7.98093 88.9112 7.47219 89.2836 5.37598C90.0023 1.33293 89.7744 0.386538 88.382 1.63201C87.8592 2.09981 87.6673 2.09981 86.2737 1.63201C84.8141 1.14228 78.7212 0.951622 76.9767 1.34145ZM91.6223 1.65232C91.1557 2.11356 91.4158 2.47161 92.5613 2.94497C94.4835 3.73871 94.5106 3.95328 94.066 14.7809C93.6866 24.0152 93.3986 27.4136 92.9579 27.8489C92.8519 27.9538 92.1949 28.2332 91.4977 28.4694C90.8009 28.7056 90.1826 29.1344 90.1236 29.422C90.0295 29.8809 90.5878 29.9448 94.7038 29.9448C98.895 29.9448 99.3798 29.8872 99.284 29.4007C99.2251 29.1013 98.685 28.6925 98.0836 28.4926C97.4822 28.2925 96.8447 27.9108 96.6671 27.6445C96.4729 27.3533 96.3722 23.6699 96.4142 18.4083C96.4722 11.2276 96.563 9.7204 96.9199 10.0133C97.1588 10.2095 97.3533 10.5361 97.352 10.7392C97.3493 11.0953 99.7595 17.9585 100.358 19.2983C100.744 20.1625 101.616 22.6131 102.048 24.0483C102.238 24.6789 102.514 25.3423 102.661 25.5224C102.808 25.7026 103.031 26.3925 103.156 27.0558C103.41 28.3986 103.799 28.6761 104.876 28.2807C105.366 28.1005 105.725 27.5531 105.977 26.6041C106.333 25.2613 109.358 16.7468 109.969 15.3673C110.34 14.5287 111.215 12.0806 111.647 10.6684C111.832 10.066 112.045 9.63458 112.12 9.70992C112.432 10.0172 112.854 26.4921 112.569 27.2311C112.404 27.6599 111.747 28.227 111.108 28.491C110.469 28.755 109.946 29.1901 109.946 29.4577C109.946 29.8685 110.78 29.9448 115.272 29.9448C120.09 29.9448 120.587 29.8921 120.49 29.3922C120.43 29.0856 119.898 28.7154 119.293 28.5604C118.558 28.3721 118.089 27.9927 117.852 27.3933C117.47 26.4279 116.713 4.7041 117.032 3.88121C117.139 3.60604 117.745 3.16642 118.38 2.90435C119.189 2.56989 119.476 2.27736 119.339 1.92455C119.179 1.5131 118.594 1.43841 116.126 1.51507L113.11 1.60876L112.253 3.81209C111.782 5.02415 111.294 6.1173 111.169 6.24178C111.043 6.36627 110.935 6.70138 110.929 6.98671C110.922 7.27204 110.629 8.09493 110.277 8.81561C109.925 9.5363 109.632 10.2511 109.626 10.4041C109.619 10.5571 109.409 11.1467 109.158 11.7144C108.907 12.2821 108.441 13.4837 108.122 14.3846C107.803 15.2854 107.347 16.4647 107.108 17.0052C106.869 17.5457 106.426 18.5776 106.123 19.2983L105.573 20.6087L105.14 19.2983C104.902 18.5776 104.383 17.1772 103.988 16.1863C103.593 15.1953 103.142 14.016 102.987 13.5656C102.832 13.1152 102.086 11.1988 101.329 9.30699C100.573 7.41519 99.8056 5.37434 99.624 4.77191C99.4428 4.16916 99.0319 3.21097 98.7111 2.64261L98.1276 1.60876L94.9911 1.51572C93.2661 1.46462 91.7502 1.5262 91.6223 1.65232ZM121.543 2.0166C121.543 2.48177 121.828 2.72975 122.519 2.86635C123.056 2.97249 123.648 3.34201 123.835 3.68728C124.305 4.55538 124.355 26.2064 123.89 27.4155C123.65 28.0402 123.232 28.3822 122.543 28.5188C121.857 28.6541 121.543 28.9093 121.543 29.3306C121.543 29.9045 121.878 29.9448 126.659 29.9448C129.473 29.9448 131.858 29.8141 131.957 29.6542C132.199 29.267 131.529 28.7747 130.395 28.5067C129.114 28.204 128.833 27.2291 128.833 23.0852V19.5443L131.656 19.3979C133.209 19.3173 134.656 19.0775 134.87 18.8653C135.085 18.653 135.499 18.4794 135.79 18.4794C136.296 18.4794 136.754 18.1917 138.727 16.6298C139.215 16.2433 139.985 15.2114 140.437 14.3367C141.121 13.0113 141.258 12.2831 141.256 9.96216C141.254 7.41388 141.169 7.05452 140.262 5.72518C138.217 2.72975 135.259 1.79974 126.927 1.53276C121.701 1.36503 121.543 1.37912 121.543 2.0166ZM144.507 1.98581C144.382 2.30586 144.455 2.60756 144.673 2.67963C144.886 2.74973 145.357 3.0534 145.719 3.35445C146.351 3.87859 146.357 3.97162 145.859 5.53977C145.573 6.44063 145.213 7.47252 145.058 7.83286C144.903 8.1932 144.674 8.99906 144.549 9.62376C144.424 10.2485 144.202 10.9855 144.054 11.2617C143.815 11.7115 141.808 17.948 140.519 22.2466C139.059 27.1168 138.485 28.1339 136.906 28.6489C134.792 29.3388 135.793 29.7755 139.711 29.8737C143.099 29.9586 143.412 29.916 143.412 29.3722C143.412 29.0076 143.012 28.6289 142.377 28.3917C141.531 28.0763 141.375 27.8683 141.524 27.2553C142.1 24.8899 142.539 23.4373 142.964 22.4923L143.443 21.4276L147.818 21.4299L152.193 21.4322L152.751 23.1497C153.058 24.0945 153.41 25.568 153.534 26.4243C153.759 27.976 153.755 27.9832 152.562 28.4763C151.903 28.7481 151.364 29.1927 151.364 29.4636C151.364 29.8911 152.428 29.9448 159.4 29.8688C166.189 29.7948 167.435 29.7067 167.435 29.3018C167.435 29.0384 166.959 28.6879 166.377 28.5228C165.795 28.358 165.201 27.9839 165.058 27.6917C164.913 27.3995 164.718 23.1432 164.624 18.2333C164.489 11.2194 164.541 9.30634 164.867 9.30666C165.095 9.30666 165.281 9.51763 165.281 9.77511C165.281 10.0323 165.469 10.4378 165.699 10.676C165.929 10.9138 166.303 11.4772 166.531 11.9277C166.758 12.3781 167.234 13.1889 167.588 13.7294C168.296 14.8104 168.374 14.9388 170.715 18.8672C171.608 20.3656 172.466 21.6405 172.621 21.7005C172.775 21.7608 172.902 21.956 172.902 22.1349C172.902 22.4412 175.494 26.9703 175.873 27.3261C175.97 27.4175 176.368 28.0769 176.756 28.7917C177.572 30.2927 178.221 30.7893 178.987 30.4988C179.476 30.313 179.529 29.0073 179.529 17.0341C179.529 3.90676 179.536 3.77049 180.23 3.28992C180.615 3.02294 181.114 2.87454 181.339 2.95971C181.77 3.12351 184.168 7.6255 184.168 8.27215C184.168 8.48115 184.317 8.65182 184.499 8.65182C184.681 8.65182 184.83 8.81955 184.83 9.02461C184.83 9.34237 187.878 15.8679 188.823 17.5739C189.298 18.4325 189.205 27.047 188.713 27.6805C188.491 27.9665 187.862 28.3472 187.316 28.5267C186.769 28.7059 186.272 29.1023 186.213 29.4072C186.114 29.9124 186.569 29.9537 191.321 29.8714C196.736 29.7777 197.995 29.4161 195.614 28.6394C194.965 28.4274 194.286 27.9809 194.106 27.6471C193.925 27.313 193.777 24.7942 193.777 22.0497V17.0596L195.931 12.7345C197.115 10.3556 198.084 8.24267 198.084 8.03924C198.084 7.83548 198.217 7.66907 198.38 7.66907C198.542 7.66907 198.776 7.26385 198.898 6.76821C199.263 5.299 200.485 3.73674 201.801 3.0593C202.634 2.63049 202.971 2.26687 202.843 1.93503C202.567 1.22417 195.925 1.215 195.649 1.92553C195.531 2.23051 195.79 2.56432 196.359 2.84047C197.524 3.4049 197.454 4.66086 196.115 7.25631C195.083 9.25687 193.321 13.0169 192.727 14.4861L192.37 15.3673L191.757 14.057C191.419 13.3363 191.14 12.5625 191.135 12.3371C191.13 12.1121 190.977 11.9277 190.795 11.9277C190.612 11.9277 190.458 11.7436 190.452 11.5182C190.446 11.2931 190.153 10.5191 189.801 9.79837C189.448 9.07768 189.156 8.30393 189.149 8.07855C189.143 7.8535 189.024 7.66907 188.885 7.66907C188.592 7.66907 187.481 4.72441 187.481 3.94804C187.481 3.66173 187.924 3.20114 188.464 2.92499C189.111 2.5938 189.381 2.25377 189.255 1.92782C188.977 1.21271 174.062 1.35324 174.062 2.07098C174.062 2.32518 174.57 2.70223 175.191 2.90894C175.813 3.11597 176.437 3.59916 176.582 3.98538C176.893 4.81908 177.136 20.1179 176.837 20.1176C176.724 20.1173 174.121 15.9111 171.053 10.7703L165.474 1.42367L162.151 1.51605C159.293 1.59565 158.812 1.68901 158.716 2.18203C158.638 2.58463 158.818 2.7553 159.32 2.7553C159.713 2.7553 160.544 3.27387 161.167 3.90774L162.299 5.06019V15.8433C162.299 21.8024 162.159 26.9897 161.986 27.4385C161.504 28.6938 160.329 28.8992 159.502 27.8725C158.818 27.0247 157.662 24.1882 157.658 23.3492C157.657 23.1032 157.454 22.5195 157.208 22.0523C156.961 21.5852 156.658 20.6699 156.534 20.0187C156.411 19.3674 156.093 18.423 155.827 17.9198C155.562 17.417 155.344 16.7523 155.342 16.4431C155.342 16.1339 155.133 15.3968 154.879 14.8052C154.625 14.2136 154.084 12.6238 153.675 11.2725C153.267 9.92121 152.393 7.19407 151.734 5.21219L150.536 1.60876L147.631 1.51408C145.13 1.43252 144.696 1.49803 144.507 1.98581ZM133.833 4.34409C136.34 5.29146 137.513 9.69813 136.241 13.39C135.367 15.9271 133.955 16.9394 130.738 17.3367L128.833 17.5719V10.7097C128.833 6.93528 128.907 3.77343 128.999 3.68302C129.217 3.46682 132.813 3.95852 133.833 4.34409ZM19.8192 6.56838C19.8192 6.86387 20.0763 7.29136 20.3907 7.51871C20.9245 7.9046 20.8884 8.15717 19.845 11.322C19.2304 13.1866 18.5504 15.1544 18.3337 15.6949C18.117 16.2354 17.6604 17.5621 17.3195 18.6431C16.6094 20.8923 16.0024 21.7552 15.1289 21.7552C14.7386 21.7552 14.5176 21.992 14.5176 22.4104C14.5176 22.9974 14.7386 23.0655 16.6442 23.0655C17.8138 23.0655 19.0067 22.9761 19.295 22.8667C20.0438 22.5827 19.9424 21.8636 19.1237 21.6517C18.5027 21.4912 18.4533 21.3202 18.6647 20.0577C18.795 19.2796 18.9676 18.5328 19.0484 18.3975C19.1293 18.2622 20.3834 18.1518 21.8351 18.1518C24.4083 18.1518 24.4832 18.1744 24.8255 19.0526C25.4312 20.608 25.3593 21.5518 24.6237 21.6923C23.6717 21.8741 23.2115 22.3812 23.7178 22.6905C24.305 23.0492 30.1638 23.1166 30.7132 22.771C31.2172 22.4539 30.9445 21.7552 30.3169 21.7552C29.6463 21.7552 29.0141 20.4583 27.5227 16.0225C26.7354 13.6802 25.9577 11.469 25.795 11.1087C25.6323 10.7484 25.2453 9.64277 24.9348 8.65182C24.1525 6.1553 24.0028 6.03115 21.7668 6.03115C20.1826 6.03115 19.8192 6.13139 19.8192 6.56838ZM79.9532 7.45778C76.4899 9.10356 74.8229 11.7803 74.8229 15.6949C74.8229 20.0351 76.9846 23.1147 80.7597 24.1521C83.2561 24.8384 83.9095 24.8397 85.9181 24.1629C90.665 22.564 93.228 17.2683 91.5232 12.5812C90.2422 9.05934 87.553 7.05747 83.7693 6.80916C81.9837 6.69188 81.3313 6.80261 79.9532 7.45778ZM149.03 11.6001C149.629 13.4919 150.399 15.8878 150.741 16.9246C151.084 17.9614 151.364 18.9563 151.364 19.1358C151.364 19.333 149.907 19.4621 147.684 19.4621H144.003L144.217 18.5613C144.582 17.0298 145.763 13.1093 146.067 12.419C146.226 12.0587 146.621 10.845 146.944 9.72204C147.268 8.59875 147.624 7.78798 147.736 7.92033C147.849 8.05234 148.431 9.70828 149.03 11.6001ZM85.7409 9.29258C87.3217 10.6481 87.7455 12.005 87.7455 15.71C87.7455 19.4844 87.3757 20.6788 85.8008 21.9891C85.2014 22.488 84.4794 22.718 83.489 22.7262C80.2103 22.753 78.9645 20.777 78.9654 15.5511C78.9658 11.8687 79.3833 10.5177 80.9111 9.25556C81.9197 8.42219 84.7511 8.44413 85.7409 9.29258ZM23.6018 16.2308C23.409 16.5394 20.3752 16.6269 20.0773 16.3324C19.9123 16.1692 20.6462 13.6154 21.5627 11.1647C21.8931 10.2819 21.9534 10.3723 22.844 13.0929C23.358 14.663 23.6992 16.0752 23.6018 16.2308Z" fill="white"/>
</svg>
