<svg width="394" height="32" viewBox="0 0 394 32" fill="none" xmlns="http://www.w3.org/2000/svg">
<path fill-rule="evenodd" clip-rule="evenodd" d="M89.1574 0.252585C88.7884 0.520312 88.1135 2.12254 87.5288 4.11879C87.3351 4.78123 87.034 5.47016 86.8601 5.65014C86.6863 5.82977 86.5431 6.2169 86.542 6.51044C86.5406 6.80363 86.3106 7.47742 86.0308 8.00771C85.7507 8.53766 85.3723 9.46679 85.1894 10.0724C85.0068 10.6778 84.5507 11.9476 84.1761 12.8939C83.8015 13.8402 83.066 15.7759 82.5419 17.1954C82.0179 18.6149 81.3712 20.2643 81.1049 20.8607C80.8384 21.457 80.6206 22.1632 80.6206 22.4295C80.6206 22.6959 80.3903 23.2145 80.1091 23.582C79.8276 23.9492 79.5924 24.4536 79.5864 24.7024C79.5802 24.9512 79.2582 25.8828 78.8707 26.7723C78.1247 28.485 77.2167 29.1024 74.8975 29.4744C73.9853 29.6203 73.6518 29.846 73.6518 30.3171C73.6518 30.9193 74.0184 30.9603 79.4011 30.9603C84.8995 30.9603 85.1503 30.9307 85.1503 30.2786C85.1503 29.8477 84.8622 29.5391 84.3663 29.44C80.6788 28.7015 80.6798 28.7022 81.3833 26.2462C81.6976 25.1484 82.4088 23.0111 82.9635 21.4969L83.9719 18.744L88.5504 18.648C93.0011 18.5547 93.1418 18.574 93.576 19.3362C94.1896 20.414 96.2739 25.677 96.728 27.2954C97.1566 28.8226 96.8179 29.2221 95.0809 29.2397C93.7248 29.2534 93.0084 29.718 93.277 30.4094C93.4624 30.8863 94.3314 30.9603 99.7368 30.9603C105.11 30.9603 106.012 30.8842 106.194 30.4159C106.502 29.6227 106.519 29.6406 105.096 29.2621C103.686 28.8873 103.243 28.2696 101.874 24.7661C101.467 23.7251 100.909 22.435 100.634 21.8992C100.359 21.3634 100.133 20.7743 100.133 20.5898C100.133 20.2863 99.5995 19.0072 98.1918 15.939C97.9179 15.3427 97.6942 14.6696 97.6942 14.4435C97.6942 14.2174 97.467 13.6214 97.1897 13.119C96.9123 12.6165 96.1224 10.7345 95.4346 8.9365C94.7467 7.13846 94.0415 5.35763 93.8673 4.9791C93.6927 4.60056 93.1972 3.43915 92.7659 2.39818C91.8839 0.270136 91.615 0 90.3769 0C89.8978 0 89.3491 0.11356 89.1574 0.252585ZM153.967 0.320722C153.201 0.485212 152.103 0.86409 151.528 1.16279C150.953 1.46149 150.287 1.7065 150.047 1.70788C149.808 1.70891 149.612 1.8648 149.612 2.05406C149.612 2.24333 149.391 2.39818 149.121 2.39818C148.677 2.39818 145.49 5.28984 144.509 6.58305C143.108 8.43098 141.616 13.1871 141.612 15.8189C141.61 17.5316 142.637 21.7045 143.391 23.0455C146.803 29.1124 152.95 32.0921 159.863 31.0308C162.356 30.6478 165.64 29.3952 165.64 28.8271C165.64 28.6753 165.806 28.5514 166.008 28.5514C166.622 28.5514 168.383 26.4286 168.188 25.9248C167.915 25.2245 167.314 25.3508 166.24 26.3343C163.518 28.8274 159.064 29.3006 155.313 27.4957C152.898 26.3339 150.505 23.9836 149.3 21.5892C148.893 20.7815 148.296 18.7615 147.972 17.1001C147.466 14.5089 147.444 13.7274 147.814 11.5962C148.051 10.2297 148.614 8.33704 149.064 7.38967C149.885 5.66046 151.729 3.43055 152.337 3.43055C152.516 3.43055 152.84 3.21891 153.058 2.96048C153.275 2.70204 154.382 2.29564 155.519 2.0575C157.17 1.71132 158.045 1.71029 159.874 2.05097C161.959 2.43948 162.303 2.6315 163.731 4.20001C164.594 5.14737 165.39 6.32943 165.5 6.82738C165.937 8.793 166.242 9.45268 166.714 9.45268C167.352 9.45268 167.48 7.64157 167.129 3.63048C166.866 0.630775 166.303 -0.499321 165.82 1.00277C165.535 1.89129 164.838 1.88544 162.853 0.977994C161.083 0.169308 156.316 -0.183417 153.967 0.320722ZM200.554 0.402278C200.324 0.629399 200.136 0.996921 200.136 1.21888C200.136 1.44084 199.812 2.37754 199.416 3.30082C199.021 4.22375 198.566 5.28881 198.405 5.66734C198.244 6.04588 197.766 7.36214 197.343 8.59238C196.919 9.82261 196.355 11.3171 196.089 11.9135C195.823 12.5099 195.606 13.1059 195.606 13.238C195.606 13.3702 195.389 13.9662 195.123 14.5625C194.857 15.1589 194.277 16.6534 193.833 17.8837C193.389 19.1139 192.823 20.5076 192.576 20.9808C192.328 21.4539 192.125 22.0293 192.124 22.2595C192.122 22.6749 191.884 23.2788 190.365 26.7303C189.588 28.4974 188.213 29.5838 186.755 29.5838C186.43 29.5838 186.198 29.8708 186.198 30.272C186.198 30.9297 186.43 30.9603 191.425 30.9603C196.321 30.9603 196.651 30.919 196.651 30.3089C196.651 29.6303 196.011 29.2397 194.897 29.2397C194.538 29.2397 193.832 29.0539 193.328 28.8271C192.597 28.4981 192.447 28.2369 192.586 27.5366C192.965 25.6357 194.061 22.3817 195.171 19.8624L195.74 18.5719H200.251C204.139 18.5719 204.827 18.6552 205.226 19.1741C205.48 19.5052 205.699 20.0086 205.711 20.2925C205.724 20.5764 206.037 21.4281 206.408 22.1852C206.778 22.9423 207.086 23.7313 207.093 23.9388C207.099 24.1463 207.363 24.8284 207.679 25.454C207.995 26.08 208.27 27.1488 208.289 27.8295C208.324 29.0549 208.308 29.069 206.684 29.2538C204.822 29.4654 204.491 29.6719 204.789 30.4372C204.97 30.9039 205.85 30.9634 211.365 30.8822C217.468 30.792 217.732 30.7597 217.732 30.1C217.732 29.6065 217.463 29.3811 216.781 29.3037C215.452 29.1523 214.757 28.1278 213.081 23.8476C212.278 21.7977 211.389 19.682 211.105 19.1462C210.821 18.6105 210.584 17.991 210.577 17.7698C210.57 17.5485 210.262 16.7481 209.892 15.991C209.522 15.2339 209.214 14.4899 209.207 14.3375C209.194 14.025 207.955 11.1451 207.441 10.2318C207.256 9.90314 207.105 9.46851 207.105 9.26651C207.105 9.06417 206.819 8.24894 206.469 7.45505C206.12 6.66117 205.557 5.31462 205.218 4.46292C204.274 2.09364 203.489 0.532012 203.101 0.252585C202.549 -0.143499 201.015 -0.0533389 200.554 0.402278ZM379.58 0.288718C376.632 1.24951 374.048 3.54308 373.36 5.81118C373.141 6.53315 372.974 7.80262 372.989 8.63229C373.055 12.4042 374.864 14.4129 380.956 17.4769C386.825 20.4288 388.296 21.904 388.291 24.8349C388.287 27.7548 385.999 29.5838 382.352 29.5838C378.5 29.5838 375.651 27.5187 374.268 23.7234C373.824 22.5014 373.316 21.669 373.016 21.669C372.593 21.669 372.543 22.3655 372.702 26.0046C372.906 30.6616 373.297 31.7562 374.257 30.3581C374.865 29.473 376.273 29.3453 377.262 30.0852C377.614 30.3488 378.986 30.7559 380.31 30.9895C384.519 31.7325 388.84 30.4806 391.013 27.889C393.117 25.3797 393.751 21.3861 392.445 18.8589C391.251 16.5468 389.818 15.4407 384.275 12.5539C379.661 10.1499 378.241 9.04662 377.978 7.65843C377.198 3.55237 380.018 1.15659 384.529 2.09295C386.902 2.58539 389.208 4.80738 390.145 7.5053C391.159 10.4238 391.608 9.64539 391.576 5.02211C391.545 0.562983 391.17 -0.459403 390.085 0.959067C389.587 1.60946 389.285 1.71063 388.449 1.50691C387.884 1.36926 387.075 1.03477 386.651 0.763606C385.756 0.191676 380.882 -0.135584 379.58 0.288718ZM0.130859 1.19376C0.130859 1.92433 0.291839 2.05406 1.19918 2.05406C1.78665 2.05406 2.57064 2.21442 2.94138 2.41023C3.58913 2.75263 3.61526 3.26468 3.61526 15.6503V28.5339L2.58736 29.0587C2.02185 29.3474 1.23785 29.5838 0.845162 29.5838C0.363269 29.5838 0.130859 29.8078 0.130859 30.272C0.130859 30.9372 0.363269 30.9603 7.06239 30.9603C13.0615 30.9603 14.0225 30.887 14.2054 30.4159C14.3218 30.1165 14.4169 29.8268 14.4169 29.772C14.4169 29.7173 13.6267 29.569 12.6608 29.4424C9.63945 29.0466 9.53875 28.8068 9.53875 22.0131V16.1631H13.1894C16.5926 16.1631 16.8741 16.2154 17.347 16.9373C17.6261 17.363 17.9602 18.1373 18.0898 18.6579C18.2431 19.275 18.5547 19.6043 18.9843 19.6043C19.5972 19.6043 19.6435 19.2894 19.6435 15.1307C19.6435 11.0147 19.5923 10.6571 19.0017 10.6571C18.5484 10.6571 18.2303 11.0866 17.9181 12.1196C17.6748 12.9238 17.2971 13.696 17.0787 13.8351C16.8605 13.9741 15.0748 14.0901 13.1103 14.0932L9.53875 14.0983V8.07619V2.05406L12.936 2.07918C14.8044 2.09295 17.1821 2.22337 18.2198 2.36893C20.6899 2.71512 21.7875 3.87619 22.4178 6.80983C22.7795 8.49361 23.0098 8.9365 23.5241 8.9365C24.1081 8.9365 24.1729 8.6347 24.1694 5.92543C24.1673 4.26952 24.0684 2.33383 23.9496 1.62391L23.7335 0.333454H11.9322H0.130859V1.19376ZM26.7479 0.825548C26.4367 1.62632 26.8346 1.9467 28.3964 2.15351C29.195 2.2595 29.9804 2.55132 30.1417 2.80218C30.5009 3.36173 30.5361 27.8849 30.1786 28.4138C29.7668 29.0229 28.4737 29.5838 27.4806 29.5838C26.7928 29.5838 26.5907 29.7352 26.6785 30.186C26.7845 30.7308 27.4357 30.7972 33.4986 30.8818C39.8771 30.9706 40.2015 30.9438 40.2015 30.3233C40.2015 29.8299 39.8653 29.6186 38.8137 29.4527C36.2945 29.0549 36.322 29.219 36.4391 15.1944C36.4962 8.37696 36.6387 2.70411 36.7561 2.58883C36.8732 2.4732 37.6572 2.2626 38.4983 2.12082C39.6998 1.91813 40.0273 1.71751 40.0273 1.18412C40.0273 0.536142 39.7325 0.501385 33.486 0.411914C27.9831 0.33311 26.9134 0.398837 26.7479 0.825548ZM42.4246 0.833119C42.1106 1.64112 42.5218 1.94429 44.2476 2.17795C45.1738 2.30355 46.0734 2.65765 46.3369 3.0004C46.7003 3.47322 46.801 6.11367 46.8062 15.3028C46.8097 21.7378 46.7163 27.3577 46.5985 27.7909C46.3396 28.7455 44.811 29.5838 43.3291 29.5838C42.4807 29.5838 42.2667 29.7163 42.358 30.186C42.4625 30.7235 43.0528 30.7986 47.8453 30.8836C51.8049 30.9538 53.2848 30.8677 53.4799 30.556C53.8628 29.9438 53.5231 29.5838 52.5624 29.5838C51.0091 29.5838 49.3463 28.5425 49.1205 27.4282C48.8164 25.9254 48.8658 6.18112 49.1739 6.19729C49.3174 6.20486 50.1408 7.14947 51.0032 8.29643C51.8656 9.44339 52.8848 10.7208 53.268 11.1347C53.6513 11.5484 54.8155 12.9655 55.8552 14.2831C56.895 15.6011 57.9173 16.8341 58.1274 17.0234C58.3371 17.2126 59.6741 18.8386 61.0982 20.6366C62.5223 22.4347 63.8519 24.0737 64.0526 24.2792C64.2537 24.4846 64.7317 25.0772 65.115 25.5961C65.4983 26.1151 66.1255 26.889 66.5088 27.3157C66.8921 27.7428 67.8099 28.8147 68.5482 29.6981C69.2869 30.5818 70.0315 31.3044 70.2033 31.3044C70.3824 31.3044 70.5207 25.3852 70.527 17.4535C70.5357 6.69076 70.6381 3.47253 70.9873 3.01864C71.2343 2.69757 72.2096 2.30665 73.1539 2.15042C74.5351 1.92158 74.8713 1.733 74.8713 1.18584C74.8713 0.540959 74.5853 0.500697 69.3757 0.410537C64.5662 0.327604 63.8533 0.385761 63.6631 0.875446C63.3867 1.58606 64.1056 2.04202 65.5119 2.0489C66.1136 2.05165 66.9353 2.32489 67.3377 2.65628C68.0409 3.23509 68.0729 3.59676 68.1604 11.9479C68.2102 16.7271 68.1332 20.637 67.9896 20.637C67.8461 20.6366 67.7283 20.4174 67.7283 20.149C67.7283 19.8809 67.6011 19.6101 67.4461 19.5468C67.2907 19.4838 66.5056 18.5805 65.7011 17.5395C64.8965 16.4986 64.0436 15.4184 63.8056 15.1393C63.5676 14.8602 60.9592 11.5308 58.0093 7.74068C55.0594 3.95052 52.4722 0.735732 52.26 0.596707C52.0478 0.457682 49.7916 0.341713 47.2466 0.338616C43.5187 0.334486 42.581 0.430496 42.4246 0.833119ZM106.886 0.833119C106.591 1.59397 107.041 2.05406 108.083 2.05406C109.419 2.05406 111.359 2.65249 111.689 3.16626C112.015 3.67384 112.086 27.1904 111.764 28.0198C111.482 28.7462 109.82 29.5838 108.662 29.5838C107.979 29.5838 107.777 29.7363 107.865 30.186C107.969 30.7232 108.556 30.7986 113.291 30.8832C118.423 30.9751 118.601 30.9548 118.601 30.281C118.601 29.7631 118.372 29.5838 117.712 29.5838C116.552 29.5838 114.883 28.7183 114.43 27.8821C114.014 27.1151 113.92 6.17767 114.332 6.19385C114.476 6.19935 115.65 7.55451 116.941 9.20491C118.233 10.8553 119.644 12.6203 120.077 13.1272C120.511 13.6341 121.336 14.6307 121.911 15.3423C122.486 16.054 123.74 17.575 124.698 18.7226C125.657 19.8699 127.377 21.9705 128.521 23.3896C129.665 24.8091 130.727 26.1254 130.88 26.3146C131.032 26.5039 131.469 27.0318 131.85 27.4881C132.231 27.9441 133.051 28.9847 133.673 29.8003C134.294 30.6158 134.999 31.2879 135.239 31.2937C135.58 31.302 135.674 28.3064 135.674 17.4332C135.674 6.86833 135.778 3.42676 136.11 2.99489C136.349 2.68312 137.329 2.30149 138.288 2.14698C139.695 1.9202 140.03 1.73541 140.03 1.18584C140.03 0.536486 139.776 0.505515 134.455 0.505515C129.124 0.505515 128.88 0.535453 128.88 1.18963C128.88 1.74435 129.196 1.91813 130.555 2.11015C132.585 2.39681 133.156 2.8218 133.415 4.23924C133.524 4.8356 133.567 8.80505 133.511 13.0605L133.409 20.798L128.21 14.0928C125.35 10.4052 122.792 7.15567 122.527 6.87177C122.261 6.58787 121.461 5.5734 120.749 4.61743C120.037 3.66146 119.027 2.42399 118.505 1.86789C117.982 1.31179 117.555 0.738829 117.555 0.594987C117.555 0.451144 115.198 0.333454 112.318 0.333454C108.06 0.333454 107.044 0.427055 106.886 0.833119ZM170.999 0.833119C170.698 1.60877 171.16 2.05406 172.267 2.05406C172.859 2.05406 173.573 2.36653 173.989 2.80735C174.677 3.53585 174.7 3.95775 174.7 15.8306C174.7 29.5876 174.802 29.0432 172.129 29.4716C171.202 29.6203 170.867 29.8443 170.867 30.3171C170.867 30.9228 171.253 30.9603 177.487 30.9603C183.875 30.9603 184.107 30.9362 184.107 30.272C184.107 29.8078 183.875 29.5838 183.393 29.5838C182.289 29.5838 180.624 28.6007 180.612 27.9403C180.605 27.6141 180.601 21.8504 180.603 15.1324C180.606 1.55302 180.516 2.05406 182.954 2.05406C183.952 2.05406 184.107 1.93809 184.107 1.19376V0.333454H177.65C172.327 0.333454 171.159 0.421205 170.999 0.833119ZM219.862 0.873381C219.539 1.70271 219.833 1.94154 221.432 2.15351C222.231 2.2595 223.016 2.55132 223.178 2.80218C223.537 3.36173 223.572 27.8849 223.215 28.4138C222.806 29.0174 221.513 29.5838 220.542 29.5838C219.549 29.5838 219.306 30.4128 220.2 30.7514C220.503 30.8663 225.759 30.9603 231.881 30.9603H243.011L243.301 30.186C243.461 29.7603 243.699 28.0181 243.83 26.3146C243.962 24.6112 244.102 22.9137 244.141 22.5424C244.262 21.4119 243.054 21.4574 242.812 22.5926C242.467 24.2159 240.781 27.2544 239.858 27.9183C238.13 29.1612 231.606 29.727 230.255 28.7514C229.607 28.283 229.579 27.7369 229.579 15.5312C229.579 8.52872 229.675 2.7048 229.792 2.58917C229.909 2.4732 230.693 2.2626 231.534 2.12082C232.736 1.91813 233.063 1.71751 233.063 1.18412C233.063 0.536486 232.769 0.501385 226.57 0.411914C220.864 0.330013 220.051 0.385761 219.862 0.873381ZM256.098 0.877855C255.981 1.17724 255.886 3.19035 255.886 5.35144C255.886 8.95577 255.94 9.28062 256.536 9.28062C257.048 9.28062 257.232 8.93443 257.404 7.64604C257.691 5.49322 258.634 3.60261 259.744 2.95497C260.253 2.658 262.021 2.32936 263.838 2.19378L267.036 1.9553V14.9094C267.036 29.7369 267.192 29.0129 263.914 29.4424C262.507 29.6268 262.158 29.8016 262.158 30.323C262.158 30.9441 262.503 30.9696 269.732 30.8811C276.38 30.7996 277.319 30.7204 277.414 30.2325C277.498 29.8034 277.126 29.6248 275.781 29.4486C274.487 29.2789 273.857 28.9909 273.326 28.3233C272.635 27.4561 272.611 27.0084 272.611 14.9325C272.611 6.44712 272.731 2.36584 272.983 2.21167C273.188 2.08675 274.761 2.09467 276.479 2.22888C279.276 2.44739 279.705 2.57472 280.588 3.44672C281.257 4.10641 281.78 5.20347 282.212 6.85043C282.728 8.81296 282.981 9.28062 283.529 9.28062C284.143 9.28062 284.186 9.1089 283.987 7.47398C283.866 6.48016 283.766 4.46739 283.765 3.0004L283.761 0.333454H270.035C257.84 0.333454 256.285 0.394019 256.098 0.877855ZM286.681 0.833119C286.379 1.61152 286.844 2.05406 287.963 2.05406C288.527 2.05406 289.302 2.36377 289.685 2.74231C290.355 3.4044 290.382 3.88927 290.382 15.5701C290.382 29.2469 290.415 29.0611 287.907 29.4572C286.881 29.6193 286.544 29.8226 286.624 30.2325C286.72 30.7208 287.536 30.7882 293.344 30.7882C299.362 30.7882 299.965 30.7342 300.072 30.186C300.16 29.7352 299.958 29.5838 299.27 29.5838C298.277 29.5838 296.984 29.0229 296.572 28.4138C296.214 27.8849 296.25 3.36173 296.609 2.80218C296.77 2.55132 297.555 2.2595 298.354 2.15351C299.951 1.94222 300.247 1.70237 299.928 0.880608C299.744 0.407784 298.842 0.333454 293.295 0.333454C288.004 0.333454 286.841 0.421205 286.681 0.833119ZM304.731 1.10773C304.821 1.733 305.126 1.91951 306.316 2.07643C307.128 2.18311 307.904 2.3827 308.043 2.51932C308.409 2.88168 308.234 6.78161 307.638 11.5174C307.352 13.7886 306.95 17.2729 306.745 19.2602C305.734 29.0742 305.777 28.9355 303.623 29.4379C302.026 29.8106 301.891 29.8987 302.098 30.431C302.27 30.8732 303.127 30.9603 307.318 30.9603C312.101 30.9603 312.334 30.9283 312.334 30.272C312.334 29.7603 312.101 29.5838 311.428 29.5838C310.93 29.5838 309.976 29.3278 309.308 29.0146C308.118 28.4572 308.097 28.4107 308.247 26.6918C308.423 24.6784 309.033 18.6727 309.596 13.4101C309.808 11.4228 310.087 8.48054 310.216 6.87177C310.44 4.07543 310.471 3.99216 310.911 4.9791C311.163 5.5469 311.5 6.47603 311.658 7.04383C312.037 8.40414 313.019 11.3392 313.385 12.2057C313.545 12.5842 314.103 14.2876 314.626 15.991C315.148 17.6944 315.691 19.2429 315.831 19.4322C315.971 19.6215 316.201 20.3183 316.341 20.9808C316.481 21.6432 316.704 22.34 316.836 22.5293C316.969 22.7186 317.432 24.0348 317.866 25.4543C318.3 26.8738 318.879 28.5439 319.153 29.1654C319.427 29.7868 319.651 30.5226 319.651 30.7999C319.651 33.1076 322.157 27.3876 324.179 20.4646C324.345 19.8968 325.359 16.9545 326.433 13.9263C327.507 10.898 328.72 7.41376 329.128 6.18352L329.87 3.94673L330.493 9.28062C330.835 12.2143 331.363 16.9373 331.665 19.7763C331.967 22.6153 332.301 25.6563 332.406 26.5342C332.569 27.8904 332.479 28.2393 331.808 28.857C331.373 29.2569 330.577 29.5838 330.038 29.5838C329.291 29.5838 329.059 29.7469 329.059 30.272C329.059 30.9362 329.291 30.9603 335.679 30.9603C342.067 30.9603 342.299 30.9362 342.299 30.272C342.299 29.7149 342.067 29.5838 341.08 29.5838C339.73 29.5838 338.592 28.7046 338.308 27.4416C338.211 27.0112 337.978 24.9554 337.79 22.8734C337.415 18.7161 336.929 14.129 336.387 9.62474C335.694 3.86793 335.655 3.25264 335.963 2.80218C336.135 2.55132 336.964 2.25709 337.807 2.14835C339.413 1.94119 339.916 1.56472 339.616 0.794921C339.478 0.437723 338.267 0.333454 334.257 0.333454H329.076L328.587 1.27979C328.318 1.80045 327.982 2.76812 327.841 3.43055C327.7 4.09298 327.457 4.7919 327.302 4.98357C327.147 5.17559 326.829 6.10472 326.595 7.0483C326.362 7.99223 326.054 8.91929 325.913 9.10856C325.771 9.29783 325.538 9.98951 325.396 10.6458C325.254 11.302 325.014 12.0763 324.862 12.3664C324.711 12.6565 324.249 13.9779 323.835 15.3028C323.421 16.6276 322.823 18.3568 322.507 19.1452L321.932 20.5785L321.314 18.9732C320.975 18.0901 320.695 17.1352 320.694 16.8513C320.693 16.5674 320.473 15.9218 320.207 15.417C319.94 14.9118 319.614 13.8674 319.482 13.0959C319.35 12.3244 319.112 11.6141 318.954 11.5174C318.796 11.4207 318.555 10.6905 318.418 9.89419C318.282 9.09824 318.044 8.20868 317.89 7.91721C317.736 7.62608 317.265 6.22654 316.844 4.80704C316.422 3.38753 315.922 1.80045 315.731 1.27979L315.385 0.333454H310.002H304.619L304.731 1.10773ZM344.174 0.833119C343.877 1.59776 344.331 2.05406 345.389 2.05406C345.916 2.05406 346.652 2.27396 347.024 2.54237C347.672 3.01072 347.7 3.55581 347.7 15.6469C347.7 27.7379 347.672 28.283 347.024 28.7514C346.652 29.0198 346.025 29.2421 345.63 29.2448C344.578 29.2528 343.91 29.78 344.154 30.4094C344.344 30.8994 345.671 30.9603 356.183 30.9603C365.217 30.9603 368.081 30.8591 368.349 30.5301C368.541 30.2937 368.804 28.7063 368.934 27.0029C369.063 25.2995 369.256 23.4023 369.362 22.7874C369.523 21.8572 369.446 21.6693 368.907 21.6721C368.417 21.6742 368.093 22.1979 367.586 23.8043C367.19 25.059 366.432 26.4595 365.742 27.2138C364.719 28.3322 364.261 28.5456 362.116 28.9028C358.937 29.4324 354.578 29.2366 354.134 28.5439C353.955 28.2641 353.806 25.3638 353.803 22.0992L353.798 16.1631H357.623C361.212 16.1631 361.478 16.2109 361.937 16.9373C362.206 17.3634 362.526 18.1373 362.648 18.6579C362.799 19.298 363.094 19.6043 363.561 19.6043C364.214 19.6043 364.251 19.3606 364.251 15.1307C364.251 10.9211 364.211 10.6571 363.57 10.6571C363.066 10.6571 362.829 10.974 362.657 11.8784C362.269 13.9194 361.862 14.0983 357.606 14.0983H353.798V8.24825V2.39818H358.374C363.889 2.39818 365.034 2.84898 365.65 5.26093C366.696 9.35805 367.521 9.23107 367.664 4.95122C367.72 3.26331 367.678 1.53341 367.57 1.10773L367.374 0.333454H355.871C346.136 0.333454 344.339 0.410193 344.174 0.833119ZM89.5337 9.10856C89.8867 10.0549 90.3769 11.2163 90.6226 11.6895C90.8686 12.1626 91.0703 12.7487 91.0717 12.992C91.0728 13.2353 91.2937 13.7773 91.5623 14.1964C91.831 14.6155 92.1571 15.4617 92.2867 16.077L92.523 17.1954H88.6623C86.5392 17.1954 84.8019 17.0784 84.8019 16.9349C84.8019 16.5282 85.3761 14.7924 86.1957 12.7218C86.6075 11.6809 87.0828 10.3894 87.2518 9.85186C87.7954 8.12093 88.441 6.88622 88.6692 7.14053C88.7915 7.27645 89.1804 8.16222 89.5337 9.10856ZM201.67 10.399C202.406 12.3392 203.289 14.662 203.633 15.5608L204.257 17.1954H200.28C195.845 17.1954 195.904 17.2377 197.007 14.8351C197.387 14.0099 197.698 13.1582 197.699 12.9424C197.7 12.7263 197.911 12.1523 198.168 11.6664C198.424 11.1809 198.746 10.3292 198.882 9.77375C199.197 8.49017 199.901 6.87177 200.144 6.87177C200.247 6.87177 200.934 8.45886 201.67 10.399Z" fill="white"/>
</svg>
