<svg width="27" height="27" viewBox="0 0 27 27" fill="none" xmlns="http://www.w3.org/2000/svg">
<path d="M24.5403 7.01587C24.6055 6.92602 24.5089 6.80808 24.4056 6.84852C23.665 7.13574 22.8915 7.3293 22.103 7.42471C22.979 6.90148 23.658 6.10404 24.0349 5.15587C24.0731 5.05928 23.9675 4.97279 23.8777 5.02334C23.0611 5.47374 22.1816 5.79834 21.2662 5.98591C21.2474 5.9897 21.2279 5.98859 21.2096 5.98269C21.1913 5.97679 21.1749 5.9663 21.1618 5.95221C20.4729 5.22537 19.5659 4.7429 18.5781 4.5779C17.5904 4.4129 16.5758 4.57437 15.6881 5.03785C14.8004 5.50132 14.0879 6.24154 13.6587 7.14632C13.2295 8.05111 13.1069 9.07114 13.3096 10.0519C13.3132 10.0689 13.3128 10.0866 13.3086 10.1035C13.3043 10.1205 13.2962 10.1362 13.285 10.1495C13.2737 10.1628 13.2595 10.1734 13.2436 10.1804C13.2276 10.1874 13.2102 10.1907 13.1928 10.19C11.4153 10.0796 9.67906 9.60722 8.09066 8.80182C6.50226 7.99641 5.09516 6.87498 3.95567 5.50631C3.94429 5.49207 3.92956 5.48088 3.91279 5.47374C3.89602 5.4666 3.87774 5.46374 3.85959 5.46541C3.84144 5.46708 3.82399 5.47323 3.80881 5.48331C3.79362 5.49339 3.78118 5.50708 3.77259 5.52316C3.41796 6.19589 3.23289 6.94503 3.23346 7.70551C3.23202 8.46297 3.4179 9.20903 3.77456 9.87727C4.13121 10.5455 4.64757 11.1152 5.27766 11.5356C4.61012 11.5174 3.95477 11.3525 3.35813 11.0526C3.28175 11.0133 3.18965 11.0683 3.19302 11.1537C3.23785 12.1658 3.60503 13.1371 4.24096 13.9257C4.91663 14.744 5.85418 15.3039 6.89505 15.5105C6.49436 15.6325 6.07835 15.6968 5.65954 15.7015C5.43183 15.6987 5.20451 15.6819 4.97889 15.6509C4.89465 15.6397 4.82614 15.7183 4.85534 15.797C5.17705 16.6678 5.75386 17.4214 6.51046 17.9594C7.26706 18.4974 8.1683 18.7948 9.0965 18.8127C7.30425 20.2224 5.05376 20.9189 2.77857 20.7682C2.65951 20.7603 2.60447 20.9187 2.70668 20.9794C4.71855 22.1732 7.0154 22.8019 9.35483 22.7989C11.0841 22.8169 12.7996 22.4901 14.4012 21.8377C16.0028 21.1852 17.4583 20.2202 18.6827 18.999C19.9072 17.7778 20.8761 16.3248 21.5327 14.725C22.1894 13.1252 22.5207 11.4105 22.5074 9.6812V9.14207C22.5074 9.12463 22.5114 9.10744 22.5192 9.09184C22.527 9.07624 22.5383 9.06268 22.5523 9.05221C23.3138 8.47743 23.984 7.7909 24.5403 7.01587Z" fill="white"/>
</svg>
