<svg width="177" height="31" viewBox="0 0 177 31" fill="none" xmlns="http://www.w3.org/2000/svg">
<g clip-path="url(#clip0_16_111)">
<path d="M0.973145 0.885725V8.8539H6.41784V29.8647H15.6203V0.885725M31.159 11.8985H26.8526V8.84019H29.0195V0.885725H17.6638V29.8647H26.8526V18.9067H31.159V29.8647H40.3752V0.885725H31.159M42.3912 29.8647H59.4384V21.8828H51.1823V18.509H56.4349V11.8985H51.1823V8.8539H59.4384V0.885725H42.3912M131.92 10.6917C131.92 4.4378 127.298 0.885725 120.743 0.885725H110.498V29.8509H119.7V22.4313L124.967 29.8509H135.349L127.888 18.7421C130.576 17.2747 131.92 14.6003 131.92 10.6917ZM119.673 13.9009V8.51104C120.948 8.51104 122.512 8.89505 122.978 10.2939C123.019 10.4174 123.047 10.5545 123.088 10.6917C123.088 10.7054 123.088 10.7328 123.102 10.7465C123.115 10.8837 123.143 11.0482 123.143 11.2128C123.143 13.366 121.182 13.9009 119.673 13.9009ZM77.6651 18.5364H77.5828L76.9245 16.1501L74.8674 8.86761H78.488L80.8743 0.885725H62.4968L73.0296 29.8509H82.4652L83.6036 26.7514C83.6036 26.7514 88.6505 13.0643 91.4072 5.60354V29.8509H108.454V21.869H100.198V18.4953H105.437V11.8985H100.198V8.8539H108.454V0.872009H82.9864L77.6651 18.5364ZM176.52 8.86761V0.89944H159.473V29.8647H176.52V21.8828H168.25V18.509H173.503V11.926H168.25V8.86761" fill="white"/>
<path d="M157.704 23.7891V11.9809H144.702V18.5639H149.543V20.9091C149.173 21.2382 148.378 21.4165 147.555 21.4165C144.181 21.4165 141.685 18.7559 141.685 15.5055C141.685 12.2552 144.112 9.3751 147.486 9.3751C149.53 9.3751 154.371 9.38881 154.371 9.38881V0.803478H152.163C148.048 0.803478 143.948 0.474326 140.176 2.4218C137.2 3.95783 134.841 6.56361 133.593 9.6631C132.866 11.4871 132.496 13.462 132.496 15.4232C132.496 23.6383 138.942 30.5641 147.294 30.5641C151.436 30.5641 155.482 29.0144 157.69 27.0806C157.704 25.0783 157.704 24.7766 157.704 23.7891Z" fill="white"/>
</g>
<defs>
<clipPath id="clip0_16_111">
<rect width="175.547" height="29.7881" fill="white" transform="translate(0.973145 0.789795)"/>
</clipPath>
</defs>
</svg>
