<svg width="85" height="41" viewBox="0 0 85 41" fill="none" xmlns="http://www.w3.org/2000/svg">
<path fill-rule="evenodd" clip-rule="evenodd" d="M0.312589 0.291092C-0.393284 0.997894 0.127559 1.69757 1.55976 1.96657C3.23438 2.28101 4.46376 3.63449 4.46376 5.16389C4.46376 5.69343 4.75331 7.10214 5.10692 8.2935C5.46097 9.48531 6.47285 13.4665 7.35575 17.1408C8.23864 20.8151 9.17936 24.623 9.44623 25.6028C9.7131 26.5826 10.2024 28.5369 10.5333 29.9452C12.57 38.6072 13.0499 40.1967 13.6917 40.4109C13.9817 40.5076 14.3251 39.8542 14.4954 38.8811C14.6591 37.9467 15.0487 36.2806 15.3614 35.1783C15.6745 34.076 16.3769 31.1699 16.9231 28.7204C17.4692 26.2709 18.1916 23.408 18.5287 22.3583C18.8659 21.3086 19.1416 19.8673 19.1416 19.1556C19.1416 18.4439 19.308 17.7585 19.5117 17.6325C19.715 17.5064 20.1335 15.9922 20.4413 14.2673C20.7491 12.5423 21.1632 11.0307 21.3616 10.9078C21.5599 10.7853 21.9344 11.7367 22.1937 13.022C22.7697 15.8808 23.7096 19.8224 24.657 23.3582C25.0484 24.8181 25.3686 26.4317 25.3686 26.9434C25.3686 27.4556 25.5465 28.0644 25.764 28.2973C25.9815 28.5302 26.3703 29.8227 26.6282 31.1699C27.7353 36.9535 28.745 40.3 29.3832 40.3C29.8262 40.3 30.2572 39.2503 30.7549 36.9598C31.1539 35.1226 31.8202 32.2166 32.2352 30.5019C32.6506 28.7872 33.2671 26.1818 33.6056 24.7121C35.0916 18.2582 36.7613 11.4984 37.3462 9.56949C37.569 8.83463 37.8915 7.34175 38.0632 6.25237C38.3959 4.14176 40.2658 1.77551 41.6015 1.77551C42.0609 1.77551 42.2798 1.48379 42.1868 0.996113C42.0591 0.329394 41.4218 0.198455 37.7732 0.0902299C34.3853 -0.0104238 33.3934 0.1027 32.9468 0.641598C32.4812 1.20321 32.527 1.36577 33.2133 1.58935C36.8992 2.78917 37.0077 3.02032 35.8793 7.27405C35.5444 8.53668 34.9542 10.9724 34.5676 12.6871C32.4158 22.2376 31.8892 24.4306 31.3594 26.0482C30.8559 27.5861 30.7714 27.6662 30.7412 26.6338C30.722 25.976 30.493 24.8769 30.2323 24.191C29.9721 23.5051 29.458 21.6381 29.0906 20.0424C27.8416 14.6209 27.1722 11.8021 26.4454 8.90143C25.1307 3.65408 25.1329 2.91699 26.4632 2.30995C27.1073 2.01601 27.9399 1.77551 28.3131 1.77551C28.7205 1.77551 28.9322 1.46331 28.8424 0.996113C28.7085 0.299999 28.0533 0.216715 22.6999 0.216715C17.6921 0.216715 16.686 0.328058 16.5775 0.893678C16.4992 1.3003 16.9742 1.76972 17.7681 2.0699C18.6497 2.40304 19.3333 3.14102 19.8235 4.28784C20.6072 6.12054 20.5027 6.90974 18.4464 14.6912C17.4532 18.4484 16.8888 20.9073 16.3751 23.71C15.8329 26.6659 15.3005 26.987 14.8957 24.6007C14.7401 23.6824 14.414 22.2291 14.1712 21.3718C13.9283 20.5145 13.4675 18.7107 13.1473 17.3635C12.827 16.0162 12.0433 12.9574 11.4055 10.5658C9.7171 4.23529 9.91548 1.77551 12.114 1.77551C13.1015 1.77551 13.1749 0.634472 12.211 0.26437C11.2529 -0.103952 0.683094 -0.0803469 0.312589 0.291092ZM47.3934 0.913719C44.2012 2.66981 42.7152 5.42176 42.7152 9.57617C42.7152 14.4481 44.6593 17.5572 50.804 22.5102C57.3255 27.7673 58.7274 29.7871 58.7274 33.9263C58.7274 36.4516 58.6216 36.7317 57.1391 38.132C55.2995 39.8689 54.8325 39.9357 52.5938 38.7804C49.9883 37.4354 46.9927 33.9023 44.7096 29.4815C44.0402 28.1855 43.2676 27.1995 42.9927 27.2912C42.3536 27.5037 42.056 39.1501 42.6738 39.7687C42.9514 40.0466 43.647 39.624 44.6304 38.5796C46.0493 37.0729 47.159 36.5099 47.1657 37.2938C47.1675 37.4773 47.8178 38.0197 48.6113 38.499C53.0733 41.1939 54.9863 41.5342 57.7444 40.1246C59.8736 39.0365 60.6791 38.115 61.8093 35.4753C62.9271 32.8632 63.0231 28.8629 62.0255 26.4717C61.1533 24.3816 58.763 21.2039 57.0915 19.9128C56.4012 19.3797 55.6362 18.7147 55.3915 18.4359C55.1469 18.1567 53.8931 17.1118 52.6054 16.1138C48.4996 12.9316 46.7142 10.1743 46.7245 7.03088C46.7334 4.19298 47.0563 3.42472 48.7207 2.28279C49.8878 1.48201 50.5478 1.31901 51.6469 1.56084C53.6177 1.99419 56.6498 5.18348 58.0522 8.29751C59.6668 11.8836 59.7789 12.0774 60.2842 12.1647C60.5573 12.2119 60.777 9.96186 60.853 6.34056C60.9211 3.0947 60.8686 0.4394 60.7356 0.4394C60.6026 0.4394 59.9128 1.09053 59.2029 1.88641L57.9112 3.33342L56.5582 2.33178C55.8141 1.78086 55.0135 1.33014 54.7795 1.33014C54.5451 1.33014 54.2769 1.09944 54.1831 0.817519C54.0892 0.5356 52.9217 0.222505 51.5886 0.121851C49.693 -0.0206673 48.7785 0.151691 47.3934 0.913719ZM71.0448 0.279067C70.2709 1.05401 70.8491 1.73097 72.3943 1.86013C75.2289 2.09618 75.2365 2.15007 75.091 20.6289L74.962 37.0332L73.5094 38.3324C72.7105 39.0472 71.6973 39.632 71.2583 39.632C70.1819 39.632 68.5127 38.0162 68.5127 36.974C68.5127 36.1185 68.8178 35.7328 70.8998 33.9566C73.5921 31.6594 71.1169 27.5317 67.9211 28.9899C66.3795 29.6931 64.9544 32.152 64.9544 34.1081C64.9544 39.322 70.4395 42.5011 75.2205 40.0591C77.5369 38.8757 78.6311 37.7458 79.6621 35.4727C80.4333 33.7718 80.5032 32.3564 80.5121 18.2319C80.5192 6.86876 80.6615 2.70455 81.0556 2.30995C81.3491 2.01601 82.1644 1.77551 82.8672 1.77551C83.8448 1.77551 84.1104 1.59246 83.9961 0.996113C83.8635 0.304898 83.1385 0.202909 77.5996 0.0937928C74.1641 0.0260966 71.2143 0.109381 71.0448 0.279067Z" fill="white"/>
</svg>
