<svg width="292" height="41" viewBox="0 0 292 41" fill="none" xmlns="http://www.w3.org/2000/svg">
<path fill-rule="evenodd" clip-rule="evenodd" d="M154.338 0.346374C150.114 0.940694 147.46 3.68061 146.819 8.11008C146.487 10.4054 146.345 10.6371 145.185 10.7689C143.939 10.9113 143.916 10.9709 143.916 14.0583C143.916 17.148 143.938 17.2053 145.19 17.3477L146.463 17.4924L146.59 25.1617L146.717 32.8311H150.632H154.547L154.674 25.1617L154.801 17.4924L157.349 17.2634L159.897 17.0345L160.034 13.9438L160.17 10.8532H157.629C154.658 10.8532 154.106 10.307 155.384 8.63251C156.163 7.6142 156.658 7.42373 158.47 7.44891L160.627 7.47913L160.494 4.01486L160.36 0.551043L158.275 0.318443C157.129 0.190697 155.357 0.203059 154.338 0.346374ZM165.223 0.218627C162.179 1.67375 161.415 5.13161 163.649 7.34039C165.796 9.46264 167.775 9.49743 170.008 7.45211C171.69 5.91137 171.764 2.79462 170.154 1.29967C169.003 0.230074 166.395 -0.341352 165.223 0.218627ZM52.0622 1.06752C51.6013 1.52311 51.6675 31.5582 52.1307 32.2803C52.4012 32.7011 53.5116 32.8348 55.9453 32.7382L59.3787 32.6022L59.6242 25.9026C59.7937 21.2781 60.0624 18.9731 60.4913 18.4621C61.2264 17.5867 64.0238 17.4713 64.5625 18.2936C64.7687 18.6087 65.0415 21.9566 65.1689 25.7341L65.4005 32.6022H69.1062H72.812L72.9393 24.8563C73.1107 14.4397 72.4034 12.339 68.1302 10.5744C65.9721 9.68287 64.3569 9.79872 61.8245 11.0254L59.6376 12.0849L59.5084 6.5469L59.3787 1.00892L55.8837 0.877049C53.9614 0.804247 52.2419 0.890328 52.0622 1.06752ZM134.989 1.42787C134.628 1.7841 134.07 2.76257 133.748 3.60277C133.426 4.44251 132.888 5.74791 132.553 6.5034C132.217 7.25889 131.497 9.01026 130.953 10.3953C129.991 12.8449 129.076 14.9232 127.927 17.2634C127.618 17.893 127.229 18.975 127.062 19.6673L126.759 20.9264H131.343H135.927L136.935 18.5226C137.49 17.2002 138.132 15.7067 138.361 15.203C138.591 14.6993 139.322 12.948 139.987 11.3111C141.846 6.72822 142.492 5.24013 143.233 3.83354C144.691 1.06478 144.369 0.77998 139.78 0.77998C136.832 0.77998 135.456 0.965877 134.989 1.42787ZM32.8424 10.6114C30.3216 11.3898 27.1513 14.5313 26.1151 17.2785C24.2766 22.1535 25.9502 28.3733 29.8032 30.9832C33.2764 33.3352 36.6366 33.7061 39.8059 32.0862C40.9621 31.4951 41.1923 31.5015 41.8427 32.1443C42.4041 32.6993 43.3505 32.838 45.8819 32.7359L49.1879 32.6022L49.3125 21.8747C49.4084 13.5977 49.3028 11.0624 48.8493 10.7781C48.1605 10.3459 43.343 10.269 42.2776 10.6733C41.8746 10.8262 41.5448 11.2703 41.5448 11.66C41.5448 12.2937 41.4591 12.2955 40.7342 11.676C39.7485 10.8331 37.129 9.92646 35.8014 9.96813C35.2659 9.98507 33.9346 10.2744 32.8424 10.6114ZM82.4237 10.6943C81.0864 11.0982 79.9918 11.6082 79.9918 11.8276C79.9918 12.0473 79.7315 12.2305 79.4128 12.2346C77.9731 12.2543 75.6561 15.7932 74.9488 19.0528C73.7838 24.4237 76.4788 29.8934 81.3449 32.0312C84.0227 33.208 88.8661 33.3009 90.8774 32.2139C91.6417 31.8009 92.444 31.4621 92.6608 31.4603C93.4001 31.4552 96.0677 28.4809 97.0632 26.5514C98.4579 23.8495 98.4376 19.2616 97.0187 16.4534C94.4525 11.3733 88.2635 8.9315 82.4237 10.6943ZM107.383 10.6293C102.598 12.1783 99.8721 15.7044 99.5433 20.7735C99.3626 23.5523 99.4965 24.4012 100.408 26.2616C102.485 30.5042 106.468 33.0459 111.027 33.0385C113.498 33.0344 116.847 32.0335 118.256 30.8783C121.686 28.0656 122.762 25.8408 122.762 21.5564C122.762 17.736 121.66 15.1645 119.009 12.7969C116.312 10.3894 111.117 9.42051 107.383 10.6293ZM185.293 10.6485C184.485 10.9988 183.691 11.497 183.529 11.7561C183.085 12.4658 182.363 12.3211 182.363 11.5222C182.363 10.9315 181.707 10.839 178.31 10.9498L174.256 11.0821L174.125 20.9264C174.053 26.3408 174.11 31.2345 174.25 31.8009C174.49 32.7684 174.745 32.8311 178.434 32.8311H182.363V26.2941C182.363 18.9296 182.755 17.7213 185.142 17.7213C187.529 17.7213 187.921 18.9296 187.921 26.2941V32.8311H191.859H195.796V23.9383V15.045L194.291 13.1014C192.053 10.2126 188.523 9.25018 185.293 10.6485ZM205.48 10.5579C203.407 11.2103 200.428 13.4237 200.428 14.3106C200.428 14.6755 200.239 14.9741 200.008 14.9741C199.298 14.9741 198.112 19.127 198.112 21.6132C198.112 26.4905 200.553 30.5212 204.607 32.3389C207.361 33.5733 209.9 33.5294 212.549 32.2011C214.631 31.1571 214.719 31.1494 214.943 31.9932C215.151 32.7821 215.56 32.8559 219.034 32.7359L222.894 32.6022L223.018 21.7277L223.142 10.8532H218.965C215.561 10.8532 214.788 10.9805 214.788 11.54C214.788 12.3917 214.383 12.4113 213.435 11.605C211.599 10.0437 208.435 9.62701 205.48 10.5579ZM237.717 10.491C236.953 10.7561 235.999 11.2548 235.596 11.5995C234.65 12.4113 234.243 12.3935 234.243 11.54C234.243 10.9805 233.471 10.8532 230.074 10.8532H225.905V21.1178C225.905 26.7634 226.031 31.7084 226.186 32.1068C226.412 32.6878 227.237 32.8311 230.355 32.8311H234.243V26.2941C234.243 18.9553 234.639 17.7213 236.992 17.7213C239.241 17.7213 239.549 18.6187 239.802 25.9172L240.033 32.6022L243.841 32.735C247.608 32.8664 247.653 32.8549 247.954 31.6695C248.121 31.0102 248.165 27.132 248.052 23.0505C247.88 16.8156 247.704 15.3765 246.951 14.0427C245.061 10.6948 241.302 9.24927 237.717 10.491ZM258.155 10.633C252.242 12.2378 248.76 18.7195 250.471 24.936C251.959 30.3403 255.842 33.0601 262.069 33.0601C266.661 33.0601 267.131 32.6233 267.131 28.3614C267.131 26.6224 267 25.0697 266.839 24.9108C266.678 24.7519 266.11 24.9237 265.578 25.2922C263.707 26.5876 260.655 25.8806 258.909 23.7483C258.058 22.708 258.222 20.4049 259.241 19.0949C260.052 18.0528 260.445 17.9502 263.632 17.9502H267.131V14.4805V11.0102L264.78 10.4741C261.925 9.82253 261.063 9.84313 258.155 10.633ZM276.259 10.7044C268.628 13.0116 265.926 24.1608 271.631 29.7995C274.246 32.3856 276.047 33.0601 280.333 33.0601C284.504 33.0601 286.758 32.2711 289.25 29.9397C291.087 28.2208 291.126 27.7185 289.482 27.0157C285.372 25.2593 284.344 25.1091 282.567 26.0042C280.74 26.925 279.048 26.7858 277.669 25.6018C277.224 25.2185 276.859 24.6283 276.859 24.2895C276.859 23.7991 278.371 23.6737 284.27 23.6737H291.682V20.9534C291.682 19.4571 291.49 18.1155 291.254 17.9722C291.019 17.8284 290.697 17.1467 290.537 16.4571C289.972 14.0075 286.706 11.3248 283.254 10.4736C280.541 9.80421 279.076 9.85274 276.259 10.7044ZM0.848476 10.8028C0.324115 11.1311 0.337548 11.4521 0.930465 12.7419C1.32142 13.5917 2.08573 15.3175 2.62908 16.5766C3.9372 19.6073 4.67372 21.2781 5.55522 23.2158C5.9559 24.0972 6.67667 25.7455 7.15656 26.8788C7.63645 28.012 8.38872 29.767 8.82785 30.7785C9.68989 32.7647 9.71676 32.6503 6.99721 38.6237C6.6359 39.4172 6.34037 40.1901 6.34037 40.3407C6.34037 40.4918 8.22103 40.615 10.519 40.615C14.6445 40.615 14.7047 40.599 15.2119 39.3558C15.4945 38.6631 15.992 37.4785 16.3176 36.7231C16.6428 35.9676 17.2778 34.4222 17.7285 33.289C18.648 30.9763 20.0747 27.5747 20.7047 26.192C20.934 25.6883 21.6617 23.9369 22.3213 22.3C22.981 20.6631 23.7087 18.9118 23.938 18.4081C25.6607 14.6265 26.3184 12.9608 26.5598 11.7689L26.8377 10.3953L23.1899 10.4022C21.1837 10.4063 19.3331 10.5606 19.0779 10.7456C18.5341 11.1403 17.9625 12.3559 16.5511 16.1187C15.9845 17.6297 15.1591 19.7437 14.7172 20.817C13.945 22.6924 13.8936 22.7277 13.3942 21.7327C13.1089 21.1631 12.434 19.5642 11.8943 18.1792C11.3552 16.7941 10.6145 15.0775 10.2485 14.3646C9.88259 13.6517 9.58289 12.7909 9.58289 12.4512C9.58289 10.9993 8.17378 10.3953 4.80203 10.4022C2.97279 10.4063 1.19404 10.5863 0.848476 10.8028ZM162.444 21.6045V32.3559L163.496 32.6168C164.075 32.7602 166.003 32.8156 167.781 32.74L171.014 32.6022L171.138 21.7277L171.262 10.8532H166.853H162.444V21.6045ZM282.94 17.3431C283.673 18.4855 283.34 18.637 280.101 18.637C276.694 18.637 276.177 18.2593 277.901 17.0304C279.108 16.1696 282.316 16.3687 282.94 17.3431ZM39.3876 17.7717C42.027 18.9608 42.4518 22.6929 40.176 24.7039C38.4816 26.2011 36.846 26.3046 35.0329 25.0285C32.5464 23.2781 32.7896 18.8838 35.4294 17.8504C37.123 17.1879 38.0503 17.1696 39.3876 17.7717ZM88.339 17.9548C91.1507 19.3921 91.4296 22.0748 89.0148 24.4617C87.6275 25.833 87.1684 26.0312 85.94 25.7881C82.023 25.0139 80.8858 19.4063 84.3437 17.9182C86.2068 17.1165 86.7075 17.121 88.339 17.9548ZM112.547 17.6828C114.299 18.3417 115.197 19.4933 115.19 21.0734C115.18 23.4177 114.751 24.3815 113.355 25.1965C111.611 26.2144 110.685 26.1631 108.894 24.9498C106.247 23.1572 106.41 19.4621 109.198 18.0656C111.056 17.1348 111.08 17.132 112.547 17.6828ZM213.651 18.8454C215.294 20.469 215.203 22.8756 213.434 24.6247C211.707 26.3307 209.805 26.3834 207.875 24.7776C206.687 23.7895 206.45 23.262 206.45 21.6059C206.45 20.0052 206.687 19.4351 207.671 18.6705C209.413 17.3152 212.185 17.3962 213.651 18.8454ZM125.423 24.1668C124.223 25.3522 123.997 25.9273 123.997 27.7945C123.997 29.6617 124.223 30.2368 125.423 31.4223C126.581 32.5674 127.228 32.8311 128.882 32.8311C130.591 32.8311 131.175 32.5738 132.552 31.2135C133.925 29.8563 134.188 29.2739 134.188 27.5985C134.188 26.0271 133.902 25.2991 132.844 24.1801C131.686 22.9543 131.179 22.7579 129.174 22.7579C127.194 22.7579 126.636 22.9676 125.423 24.1668Z" fill="white"/>
</svg>
