<svg width="151" height="31" viewBox="0 0 151 31" fill="none" xmlns="http://www.w3.org/2000/svg">
<path fill-rule="evenodd" clip-rule="evenodd" d="M0.536379 1.01219C0.416285 1.13066 0.318115 7.83153 0.318115 15.903V30.5779H15.3708H30.4234V15.6871V0.796269H15.589C7.42984 0.796269 0.656146 0.893383 0.536379 1.01219ZM60.5288 15.6871V30.5779H75.4178H90.3069V15.6871V0.796269H75.4178H60.5288V15.6871ZM120.412 15.6838V30.5779H135.468H150.524L150.439 15.768L150.354 0.958126L135.383 0.87396L120.412 0.789795V15.6838ZM38.4953 5.54417C38.3752 5.66265 38.277 6.45769 38.277 7.311V8.86191L40.8131 8.95643L43.3491 9.05096L43.4375 15.7544L43.5258 22.4575L40.9832 22.5524L38.4406 22.6469L38.3418 24.3464L38.2426 26.0459H45.2955H52.348V24.2655V22.4851H49.8872H47.4261L47.5148 15.768L47.6031 9.05096L49.9755 8.95578L52.348 8.86061V7.09443V5.32825H45.5308C41.781 5.32825 38.615 5.42537 38.4953 5.54417ZM96.197 7.08925V8.84993L97.4242 8.95061L98.6513 9.05096L98.7396 15.768L98.8283 22.4851H97.5125H96.197V24.2655V26.0459H105.043H113.89L113.797 22.566L113.704 19.0861L111.986 18.9883L110.268 18.8902V20.6878V22.4851H106.505H102.742V19.8953V17.3056H105.523H108.305V15.5252V13.7448H105.523H102.742V11.3059V8.86709L106.259 8.95902L109.777 9.05096L109.941 10.5077L110.104 11.9644L111.822 12.0621L113.54 12.1602V8.74408V5.32825H104.869H96.197V7.08925ZM7.3019 6.70404C7.40268 7.28283 7.70636 8.99431 7.97632 10.5077C8.24661 12.021 8.61606 14.2061 8.79767 15.3634C8.97961 16.5206 9.30586 18.237 9.52282 19.1777L9.91746 20.8879L10.3445 19.6632C10.5795 18.9896 10.8602 17.7831 10.9685 16.9819C11.0768 16.1807 11.2549 15.3067 11.3642 15.0397C11.4731 14.7726 11.8197 13.3159 12.1338 11.8025C13.4771 5.33117 13.2706 5.66459 15.9359 5.65682C17.9883 5.651 18.4566 6.17444 18.8159 8.87615C18.9448 9.84826 19.1732 10.868 19.3228 11.1421C19.4723 11.4163 19.7419 12.4419 19.9216 13.4211C21.2943 20.8992 21.5951 21.8189 21.9845 19.7335C22.1176 19.0213 22.4436 17.2733 22.709 15.8489C22.974 14.4246 23.4564 11.584 23.7803 9.53653L24.3697 5.81382L26.4574 5.71639C28.5013 5.62089 28.5406 5.63449 28.3203 6.36381C28.1966 6.77363 27.8013 8.71106 27.4417 10.6695C27.0824 12.628 26.5719 15.3957 26.3075 16.8201C26.0431 18.2444 25.6344 20.5751 25.3995 21.9995C24.7561 25.9018 24.6321 26.0459 21.9154 26.0459C19.2553 26.0459 19.2226 26.0113 18.4605 22.4164C18.1853 21.1187 17.7589 19.1103 17.5128 17.9531C17.2668 16.7958 16.879 14.9387 16.6512 13.8257C16.2239 11.7378 15.822 11.2609 15.5606 12.5309C15.1231 14.6551 14.9683 15.3669 14.5586 17.1438C14.3119 18.212 13.8233 20.4334 13.4722 22.0801C13.1211 23.7265 12.6505 25.2926 12.426 25.56C11.9139 26.1705 8.20767 26.2311 7.44882 25.6413C7.1625 25.4189 6.77473 24.4354 6.58689 23.4562C6.20011 21.4378 5.07541 15.9159 4.41113 12.7737C4.16669 11.6164 3.81262 9.94117 3.62447 9.05096C3.43631 8.16075 3.2079 7.03163 3.11726 6.54218L2.95233 5.65197H5.03549H7.11832L7.3019 6.70404ZM82.4533 6.0702C83.7226 6.70468 84.383 8.3977 84.401 11.0632C84.42 13.8765 83.7655 15.4731 82.3568 16.0503C81.4464 16.4235 81.4271 16.4659 82.0626 16.6984C82.4363 16.8353 82.968 17.2875 83.2436 17.7038C83.776 18.5076 84.3994 22.0574 84.4102 24.3464L84.4167 25.7222H82.325H80.2334L79.9997 22.4041C79.6839 17.9213 79.719 17.9531 75.0399 17.9531H71.3274V21.9995V26.0459H69.2004H67.0734V15.8489V5.65197L74.3543 5.65682C79.5606 5.66006 81.8682 5.77789 82.4533 6.0702ZM142.433 6.71148C144.556 8.31419 145.016 9.91268 145.019 15.6871C145.021 20.0588 144.934 20.9037 144.342 22.2504C142.884 25.5642 140.978 26.1586 132.356 25.9876L127.12 25.884L127.034 15.7405L126.947 5.59726L134.096 5.70538L141.244 5.81382L142.433 6.71148ZM71.3274 11.9644V14.7159L75.1724 14.7111C77.2873 14.7082 79.2383 14.568 79.5082 14.399C79.8633 14.177 79.9991 13.5036 79.9991 11.9644C79.9991 10.4251 79.8633 9.7518 79.5082 9.52973C79.2383 9.36075 77.2873 9.22058 75.1724 9.21767L71.3274 9.21281V11.9644ZM131.286 15.768L131.374 22.3232H134.81C138.77 22.3232 139.885 22.0917 140.385 21.1675C140.6 20.771 140.742 18.5529 140.74 15.6385C140.735 8.95125 140.951 9.21281 135.45 9.21281H131.197L131.286 15.768Z" fill="white"/>
</svg>
